<svg width="156" height="156" viewBox="0 0 156 156" fill="none" xmlns="http://www.w3.org/2000/svg">
<g clip-path="url(#clip0_62_187)">
<rect width="156" height="156" fill="white"/>
<rect y="78" width="78" height="78" fill="#CC1848"/>
<rect x="78" y="78" width="78" height="78" fill="#760D29"/>
<rect x="78" width="78" height="78" fill="#D9D9D9"/>
<rect width="78" height="78" fill="#D9D9D9"/>
<path d="M78 119C73.4037 119 68.8525 117.836 64.6061 115.575C60.3597 113.313 56.5013 109.998 53.2513 105.82C50.0012 101.641 47.4231 96.6804 45.6642 91.2208C43.9053 85.7611 43 79.9095 43 74L78 74L78 119Z" fill="#EA9FB3"/>
<path d="M78.5 158C68.0599 158 57.7221 155.918 48.0767 151.872C38.4313 147.827 29.6673 141.897 22.285 134.422C14.9028 126.947 9.04683 118.073 5.05157 108.306C1.05632 98.5393 -1 88.0714 -1 77.5L43.4759 77.5C43.4759 82.1573 44.3818 86.769 46.1419 91.0717C47.902 95.3745 50.4819 99.2841 53.7342 102.577C56.9865 105.871 60.8475 108.483 65.0968 110.265C69.3462 112.047 73.9006 112.965 78.5 112.965L78.5 158Z" fill="#760D29"/>
<path d="M158 78.5C158 88.9401 155.944 99.2779 151.948 108.923C147.953 118.569 142.097 127.333 134.715 134.715C127.333 142.097 118.569 147.953 108.923 151.948C99.2779 155.944 88.9401 158 78.5 158L78.5 113.524C83.0994 113.524 87.6538 112.618 91.9032 110.858C96.1525 109.098 100.014 106.518 103.266 103.266C106.518 100.014 109.098 96.1525 110.858 91.9032C112.618 87.6538 113.524 83.0994 113.524 78.5L158 78.5Z" fill="#CC1848"/>
<rect width="39" height="78" fill="#CC1848"/>
<rect x="39" width="39" height="78" fill="#760D29"/>
<circle cx="39.5" cy="18.5" r="8.5" fill="#EA9FB3"/>
<circle cx="39.5" cy="39.5" r="8.5" fill="#EA9FB3"/>
<circle cx="39.5" cy="60.5" r="8.5" fill="#EA9FB3"/>
<rect x="78" y="39" width="39" height="78" transform="rotate(-90 78 39)" fill="#CC1848"/>
<rect x="78" y="78" width="39" height="78" transform="rotate(-90 78 78)" fill="#EA9FB3"/>
<circle cx="96.5" cy="39.5" r="8.5" transform="rotate(-90 96.5 39.5)" fill="#760D29"/>
<circle cx="117.5" cy="39.5" r="8.5" transform="rotate(-90 117.5 39.5)" fill="#760D29"/>
<circle cx="138.5" cy="39.5" r="8.5" transform="rotate(-90 138.5 39.5)" fill="#760D29"/>
</g>
<defs>
<clipPath id="clip0_62_187">
<rect width="156" height="156" fill="white"/>
</clipPath>
</defs>
</svg>
