<svg width="218" height="66" viewBox="0 0 218 66" fill="none" xmlns="http://www.w3.org/2000/svg">
<path d="M36.8955 12.3234H47.0395V19.0331H47.437C48.8063 14.2748 52.2808 11.7681 56.4916 11.7681C57.5516 11.7681 58.8472 11.9182 59.7895 12.1433V21.5998C58.803 21.2696 56.8155 21.0294 55.3726 21.0294C50.7497 21.0294 47.3634 24.2867 47.3634 29.015V50.7649H36.8955V12.3234Z" fill="black"/>
<path d="M60.9668 40.0476C60.9668 31.4616 67.6657 28.9099 75.1301 28.2044C81.6818 27.559 84.2583 27.2287 84.2583 24.752V24.6019C84.2583 21.4498 82.2265 19.6185 78.6636 19.6185C74.9093 19.6185 72.6714 21.4948 71.9647 24.0465L62.2919 23.251C63.7347 16.2412 69.6827 11.8281 78.7225 11.8281C87.1145 11.8281 94.7262 15.6858 94.7262 24.8421V50.78H84.803V45.4513H84.5086C82.6682 49.0388 79.0611 51.5155 73.4812 51.5155C66.2965 51.5005 60.9668 47.6578 60.9668 40.0476ZM84.3319 37.0305V32.9477C83.0805 33.8033 79.3409 34.3436 77.0588 34.6739C73.3781 35.1992 70.9489 36.6702 70.9489 39.6873C70.9489 42.6143 73.2604 44.1454 76.4699 44.1454C81.0782 44.1454 84.3319 41.0683 84.3319 37.0305Z" fill="black"/>
<path d="M100.263 12.3836H110.569V18.8381H111.04C112.438 15.7159 115.457 11.8733 121.773 11.8733C130.047 11.8733 137.04 18.4328 137.04 31.6569C137.04 44.5208 130.341 51.4556 121.743 51.4556C115.648 51.4556 112.483 47.8681 111.04 44.6709H110.716V65.2501H100.263V12.3836ZM118.431 42.9747C123.569 42.9747 126.366 38.3215 126.366 31.6119C126.366 24.9473 123.613 20.3691 118.431 20.3691C113.351 20.3691 110.495 24.7522 110.495 31.6119C110.495 38.4716 113.395 42.9747 118.431 42.9747Z" fill="black"/>
<path d="M140.838 12.3836H151.159V18.8381H151.63C153.028 15.7159 156.047 11.8733 162.363 11.8733C170.637 11.8733 177.63 18.4328 177.63 31.6569C177.63 44.5208 170.931 51.4556 162.333 51.4556C156.238 51.4556 153.073 47.8681 151.63 44.6709H151.306V65.2501H140.838V12.3836ZM159.006 42.9747C164.144 42.9747 166.941 38.3215 166.941 31.6119C166.941 24.9473 164.188 20.3691 159.006 20.3691C153.927 20.3691 151.07 24.7522 151.07 31.6119C151.07 38.4716 153.985 42.9747 159.006 42.9747Z" fill="black"/>
<path d="M181.135 31.7919C181.135 19.9187 188.334 11.8882 199.435 11.8882C209.403 11.8882 217.161 18.3426 217.161 31.4166V34.3437H191.47V34.3737C191.47 40.1076 194.783 43.6351 200.009 43.6351C203.499 43.6351 206.193 42.104 207.253 39.177L216.926 39.8224C215.454 46.9523 209.167 51.5905 199.833 51.5905C188.231 51.5905 181.135 43.9803 181.135 31.7919ZM207.312 27.7391C207.283 23.161 204.147 19.8587 199.597 19.8587C194.96 19.8587 191.691 23.3711 191.47 27.7391H207.312Z" fill="black"/>
<path d="M0 0V8.93116H33.303V0H0Z" fill="black"/>
<path d="M0 22.7859V50.7802H10.6299V31.7321H31.0945V22.7859H0Z" fill="black"/>
</svg>
