<svg width="95" height="101" viewBox="0 0 95 101" fill="none" xmlns="http://www.w3.org/2000/svg">
<path d="M42.464 48.5489C40.9985 48.57 42.7413 49.3335 44.6546 49.6394C45.1831 49.2106 45.6626 48.7768 46.0899 48.3548C44.8984 48.6582 43.6857 48.6649 42.464 48.5489Z" fill="#A80030"/>
<path d="M50.33 46.5119C51.2027 45.2604 51.8388 43.8903 52.0631 42.4736C51.8673 43.4836 51.3397 44.3555 50.843 45.2757C48.1036 47.0677 50.5853 44.2114 50.8414 43.126C47.8956 46.9779 50.4369 45.4358 50.33 46.5119Z" fill="#A80030"/>
<path d="M53.2334 38.6623C53.4103 35.9204 52.7139 36.7872 52.4798 37.8337C52.753 37.9811 52.9691 39.7664 53.2334 38.6623Z" fill="#A80030"/>
<path d="M36.9069 1.18539C37.689 1.33113 38.5967 1.44298 38.4695 1.63702C39.325 1.44213 39.5191 1.2625 36.9069 1.18539Z" fill="#A80030"/>
<path d="M38.4695 1.63702L37.9166 1.75565L38.4312 1.7082L38.4695 1.63702Z" fill="#A80030"/>
<path d="M65.0392 42.6727L64.7134 42.6078C64.9081 41.4172 64.9574 40.2188 64.9562 39.0499C64.9554 38.3516 64.9374 37.6751 64.9199 37.0158C64.8918 35.961 64.8649 34.9503 64.9118 33.9648L64.9307 33.5669L64.5932 33.4724C64.3663 29.4125 62.5975 25.2851 60.1652 21.807C57.6601 18.2249 54.4132 15.277 51.3177 13.7741L51.3157 13.7731C48.658 12.4975 45.3076 11.7593 42.1618 11.5735C40.2016 11.4577 38.287 11.5545 36.6492 11.8868C36.5769 11.809 36.499 11.7598 36.4562 11.7345L36.3143 11.6506L36.1504 11.6675C33.2101 11.9712 32.015 12.512 30.9877 13.1539C30.8376 13.2477 30.6936 13.3418 30.5493 13.4361C29.7653 13.9487 28.9756 14.4649 27.184 14.9404L27.0535 14.9751L26.9581 15.0707C26.8708 15.1584 26.7898 15.2505 26.7294 15.3457C26.6806 15.4228 26.5849 15.5934 26.617 15.8077C26.617 15.8079 26.617 15.8081 26.6171 15.8083C26.5978 15.8103 26.5785 15.8122 26.5592 15.8142C26.1026 15.8609 25.6176 15.9104 25.0973 16.0543C23.9628 16.3683 22.7336 17.1065 20.9461 19.0283L20.6911 19.3025L20.8147 19.5104C20.6669 19.55 20.5185 19.5981 20.3702 19.6531C19.8105 19.861 19.2216 20.1803 18.6245 20.572C17.4308 21.3552 16.1577 22.4593 14.9548 23.649C12.5561 26.0214 10.361 28.8111 9.57262 30.2398L9.23554 30.8507L9.92236 30.9736L10.11 31.0072C9.62827 32.173 9.10683 33.1861 8.62793 34.1165C8.529 34.3087 8.43189 34.4974 8.33732 34.6832C7.72375 35.8884 7.19498 37.0095 7.06702 38.124L7.06568 38.1357L7.06489 38.1474C6.99406 39.1993 6.86278 40.4371 6.72112 41.7727C6.69681 42.0019 6.6722 42.2339 6.64754 42.4684C6.47978 44.0633 6.31051 45.7633 6.22484 47.3977C6.1393 49.0296 6.13593 50.615 6.30585 51.9788C6.46249 53.236 6.77369 54.3718 7.36175 55.1765L7.15578 57.3086L7.14233 57.4479L7.20314 57.574C7.28968 57.7533 7.37564 57.9475 7.46489 58.1492C7.5696 58.3857 7.67883 58.6325 7.79881 58.8775L7.43317 58.908L7.614 59.5006C8.2254 61.5042 8.71674 62.597 9.19194 63.1974C9.44087 63.5119 9.69772 63.708 9.97704 63.8229C10.2277 63.9259 10.4704 63.95 10.6446 63.9672C10.6549 63.9683 10.6649 63.9692 10.6747 63.9702C10.8627 63.9892 10.9923 64.006 11.1298 64.0623C11.2615 64.1162 11.4299 64.2197 11.643 64.4534C11.9334 64.7717 12.2866 65.3086 12.7216 66.2235L11.97 65.169L11.8248 66.4683C11.7917 66.7645 11.8748 67.1257 11.987 67.4695C12.1057 67.8332 12.2826 68.2512 12.4982 68.6907C12.8779 69.4645 13.3912 70.3325 13.9572 71.1288L13.6689 71.4713L13.4517 71.7294L13.6096 72.0274C13.9914 72.748 14.3775 73.2078 14.7201 73.537C14.6907 73.5988 14.6733 73.6602 14.6636 73.7156C14.633 73.889 14.6668 74.0597 14.7019 74.1855C14.7755 74.4493 14.93 74.7675 15.1117 75.0936C15.2983 75.4282 15.5325 75.8042 15.7872 76.1922C16.2966 76.9684 16.9028 77.8154 17.4058 78.5137C17.4503 78.5755 17.4938 78.6359 17.5362 78.6947C17.988 79.3216 18.312 79.7712 18.401 79.9298L18.8453 80.7221L19.0301 80.38C19.1179 80.6015 19.2237 80.8271 19.3449 81.057C19.7498 81.8252 20.3524 82.6891 21.117 83.6693L21.275 83.8719L21.5317 83.8614L22.4853 83.8223C22.8244 84.3827 23.3862 85.0399 23.9869 85.5901C24.3463 85.9194 24.7352 86.2248 25.1199 86.4568C25.2516 86.5363 25.388 86.6103 25.527 86.6744L25.1808 87.1441L24.7712 87.6999L25.427 87.9157C26.1333 88.1481 26.5496 88.3342 26.8339 88.4957C27.0974 88.6454 27.2592 88.7797 27.4612 88.9475L27.4989 88.9788C27.9827 89.3801 28.5516 89.8118 30.3783 90.4834L31.1176 90.7552C31.2918 90.9497 31.4695 91.1455 31.6608 91.3455C32.3798 92.0975 33.2074 92.8086 34.5532 93.467L34.5773 93.4788L34.6026 93.4879C35.3497 93.7586 35.9651 93.9518 36.5033 94.0976C35.3625 93.9684 34.3182 93.767 33.4489 93.4439L33.4298 93.4368L33.4102 93.4313C25.2081 91.1232 17.3143 84.9544 11.6058 76.7429C5.89997 68.5351 2.40752 58.329 2.95854 47.9908L2.96005 47.9623L2.95833 47.9339C2.85162 46.1735 2.90574 44.2277 2.95483 42.4629C2.96407 42.1308 2.97313 41.805 2.98091 41.4882C3.00526 40.4961 3.01703 39.5851 2.97851 38.8525C2.95924 38.4861 2.92685 38.1519 2.87381 37.8675C2.83905 37.6812 2.79173 37.4946 2.72165 37.3269C2.76114 37.193 2.8009 37.058 2.841 36.9219C3.73027 33.9028 4.78421 30.3247 6.7386 26.13C7.01037 26.1363 7.28384 26.0264 7.54602 25.8087C7.81654 25.584 8.09669 25.2287 8.39465 24.7012L8.4071 24.6791L8.41726 24.656C8.65781 24.107 8.8765 23.5574 9.0932 23.0127C9.49299 22.008 9.88599 21.0202 10.397 20.0854L10.6282 20.0293L10.9495 19.9513L11.0036 19.6251C11.0938 19.081 11.4618 18.4025 12.061 17.6234C12.6509 16.8565 13.4219 16.0457 14.2452 15.2401C14.8227 14.675 15.4161 14.1217 15.9848 13.5915C16.2277 13.365 16.4661 13.1427 16.6968 12.9256C17.1125 12.5342 17.506 12.1569 17.8493 11.8054L17.9517 12.5143L18.6551 11.8291C20.4083 10.1211 22.8699 8.67573 25.3778 7.43919C26.9555 6.66125 28.5093 5.98487 29.9072 5.37637C30.48 5.12701 31.0266 4.88906 31.538 4.66018C31.5383 4.66051 31.5387 4.66083 31.5391 4.66115C31.6572 4.76769 31.7927 4.80851 31.8822 4.82683C32.0598 4.8632 32.2661 4.85078 32.4466 4.83041C32.6405 4.80854 32.8642 4.76964 33.1013 4.72333C33.3433 4.67604 33.603 4.62066 33.8731 4.56306C33.9362 4.54962 33.9998 4.53606 34.0638 4.52245L34.443 5.3353C35.7058 5.02231 36.2734 5.08933 36.8598 5.18389C36.9056 5.19127 36.9516 5.19887 36.9982 5.20655C37.0544 5.21584 37.1114 5.22524 37.1696 5.23453C37.1485 5.30021 37.1362 5.37996 37.1479 5.4703C37.1699 5.64071 37.2651 5.75809 37.3482 5.8255L37.4602 5.91635L37.6034 5.93359C39.0446 6.10712 39.9613 5.9164 40.7385 5.75472C40.834 5.73484 40.9274 5.71541 41.0195 5.69714C41.8088 5.54047 42.5381 5.45365 43.8463 5.9063L44.6769 6.1937L44.5018 5.34408C45.4298 5.67327 46.1674 5.90255 46.8355 6.11027C48.5395 6.63999 49.7923 7.02945 52.6025 8.57804L52.7035 8.6337L52.8187 8.6395C53.4715 8.67234 53.9665 8.50834 54.3358 8.386C54.447 8.34915 54.5468 8.31609 54.6361 8.29331C54.9946 8.20185 55.4514 8.15851 56.3881 8.52877C56.4078 8.57588 56.4249 8.62296 56.4446 8.67693C56.4565 8.70932 56.4692 8.74419 56.4839 8.78303C56.5493 8.95594 56.6356 9.14649 56.8171 9.37042C57.1519 9.7834 57.7939 10.2855 59.1785 11.142L59.396 11.2766L59.6324 11.179C59.7887 11.1145 59.9174 10.9883 59.9746 10.8184C64.3816 13.8785 68.734 18.8958 70.6973 24.3319C70.5299 24.4171 70.4472 24.576 70.4181 24.6536C70.3756 24.7673 70.3671 24.8849 70.3647 24.9625C70.3594 25.1312 70.3795 25.3421 70.404 25.5443C70.4187 25.6663 70.4352 25.7876 70.452 25.9072C70.1765 25.3637 69.8799 24.8435 69.5614 24.3642L68.7668 23.168L68.6467 24.599C68.637 24.7146 68.6189 24.7791 68.6066 24.8111C68.5733 24.8114 68.5193 24.8065 68.4307 24.7908C68.4099 24.7871 68.384 24.7821 68.3546 24.7764C68.2622 24.7586 68.136 24.7342 68.0306 24.7242C67.8882 24.7107 67.6469 24.7046 67.4242 24.8455C67.1769 25.0019 67.0735 25.2572 67.0408 25.5019C67.0092 25.738 67.033 26.0244 67.0953 26.3605C67.1589 26.7036 67.2694 27.1319 67.4341 27.6658L67.4554 27.7348L67.4954 27.795C67.6258 27.9914 67.751 28.152 67.8778 28.2623C67.9863 28.3566 68.2368 28.5332 68.548 28.4208C68.582 28.4086 68.6133 28.3938 68.642 28.3774C68.697 28.4863 68.7595 28.6153 68.8303 28.7672C68.8518 29.4116 68.9761 30.0445 69.12 30.6855C69.1371 30.7617 69.1545 30.8381 69.1721 30.9146C69.1152 30.8942 69.0513 30.8803 68.9808 30.8781C68.689 30.8691 68.5066 31.057 68.4191 31.1951L68.3112 31.3655L68.3518 31.5631C68.5698 32.6259 68.8604 33.4467 69.1386 34.0316C69.2505 34.2669 69.362 34.4673 69.4681 34.6318C69.383 34.7388 69.3318 34.8642 69.2994 34.9826C69.2442 35.1837 69.2171 35.4546 69.211 35.8161L69.2107 35.8329L69.2116 35.8497C69.2525 36.6656 69.3291 37.2301 69.4394 37.6139C69.5411 37.9676 69.7166 38.3275 70.0849 38.4541C70.1246 38.4678 70.1639 38.4775 70.2026 38.4841C70.1546 38.6208 70.1021 38.7632 70.0461 38.9126C70.0262 38.9656 70.0059 39.0195 69.9853 39.0741C69.8381 39.4648 69.6759 39.8955 69.5392 40.3543C69.4386 40.6922 69.3506 41.0486 69.2893 41.4252L68.5291 41.5161C68.4765 41.9768 68.4624 42.3749 68.4666 42.7298C68.4571 42.7346 68.4478 42.7395 68.4389 42.7446C68.2583 42.8456 68.1254 43.0195 68.0273 43.1738L67.9367 43.3165L67.9511 43.4849C68.0938 45.1431 67.4658 46.6297 66.7808 48.06C66.7217 48.1836 66.6618 48.3073 66.6019 48.4311C66.3233 49.0066 66.0452 49.5813 65.8426 50.1297C65.7722 50.3202 65.7088 50.5128 65.6565 50.7068L65.5488 50.5527L65.1284 49.9511L64.7224 50.5626C64.1133 51.4801 63.7814 52.0995 63.6167 52.5582C63.4617 52.99 63.4524 53.2874 63.4934 53.5463C63.4509 53.5699 63.4131 53.5938 63.3809 53.6151C63.2499 53.7018 63.1102 53.816 62.969 53.9415C62.686 54.193 62.3485 54.534 61.9899 54.9009C61.9287 54.9635 61.8667 55.027 61.8041 55.0912C61.1193 55.7932 60.3546 56.5771 59.6254 57.1671L59.6253 57.1671L59.6199 57.1716C53.3769 62.3712 45.9476 63.116 38.6935 60.3904C38.6689 60.3195 38.6342 60.2484 38.5883 60.1773C38.4626 59.9825 38.2619 59.8029 38.0005 59.6185C34.8398 57.1009 32.3901 54.8189 30.8748 51.9702C29.3847 49.1688 28.7725 45.7674 29.3767 40.9628C29.4957 40.8331 29.5936 40.6827 29.6763 40.5324C29.7971 40.313 29.905 40.0576 30.006 39.7892C30.1167 39.4948 30.2334 39.1433 30.3537 38.7809C30.4436 38.5099 30.5355 38.2328 30.6285 37.969C31.0942 36.6482 31.6702 35.4047 32.6244 34.7806L32.7494 34.6988L32.8091 34.5618C34.0799 31.6444 37.953 28.888 42.1055 28.8198L42.1157 28.8197L42.1259 28.8191C44.229 28.6987 46.1774 29.2835 47.8265 30.2061C44.781 29.2308 41.2863 29.4009 38.1385 31.017C33.0544 33.3976 30.0797 39.1873 30.5146 44.9186L30.6261 46.3872L31.0123 45.7963C31.4778 50.6451 34.1693 54.7889 37.7109 57.3982C41.5122 60.1989 46.365 61.2778 50.5567 59.4755L50.6247 59.6322L51.0456 59.5129C52.7484 59.0303 53.5434 58.5739 54.1934 58.0067C54.393 57.8325 54.587 57.6396 54.78 57.4475C54.7818 57.4457 54.7836 57.4439 54.7854 57.4422C54.948 57.557 55.1357 57.5758 55.2585 57.5786L55.332 57.5803L55.403 57.5608C55.6019 57.5059 55.8156 57.3958 56.0219 57.2706C56.2351 57.1412 56.4709 56.9766 56.7195 56.7897C57.2167 56.4158 57.7887 55.9343 58.3709 55.4216C59.2237 54.6707 60.1175 53.8359 60.8493 53.1524C61.1153 52.9039 61.36 52.6754 61.5734 52.4782L61.6489 52.4085L61.6908 52.3147C61.8874 51.874 61.9806 51.5492 62.0005 51.2717C62.0183 51.0236 61.9721 50.8319 61.9439 50.715C61.9397 50.6974 61.9359 50.6815 61.9328 50.6674C61.9131 50.5788 61.8992 50.4992 61.9326 50.3357C61.9671 50.1672 62.0531 49.9074 62.2532 49.4874L63.3729 48.9061L63.5529 48.8127L63.6169 48.6203C63.7739 48.1485 63.94 47.7138 64.1012 47.2918C64.6315 45.9036 65.1094 44.6526 65.0392 42.6727ZM27.2745 15.3091C27.2745 15.3091 27.2757 15.3091 27.2781 15.3093L27.2745 15.3091ZM38.0019 5.72057C38.0017 5.72053 38.004 5.71876 38.0092 5.71535C38.0048 5.71889 38.0021 5.72061 38.0019 5.72057ZM68.7541 31.812C68.7545 31.8125 68.755 31.8129 68.7555 31.8134C68.7472 31.8067 68.7467 31.8047 68.7541 31.812ZM55.5068 57.0558C55.5066 57.0561 55.507 57.0553 55.508 57.0534C55.5074 57.0547 55.507 57.0555 55.5068 57.0558ZM38.818 62.2546C38.8591 62.2878 38.9011 62.3211 38.9437 62.3544C38.3223 62.0647 37.7102 61.7447 37.1142 61.398C37.3727 61.5421 37.6343 61.6787 37.8987 61.8073L38.818 62.2546ZM59.0208 10.7136C59.0239 10.7204 59.0229 10.7198 59.0203 10.7126C59.0204 10.713 59.0206 10.7133 59.0208 10.7136Z" fill="#A80030" stroke="black"/>
<path d="M26.4678 50.6392L26.2623 51.7068C27.2255 53.0659 27.9897 54.5386 29.2195 55.6011C28.3346 53.8065 27.6773 53.0651 26.4678 50.6392Z" fill="#A80030"/>
<path d="M28.7449 50.546C28.2352 49.9605 27.9334 49.2556 27.5958 48.5531C27.9187 49.7877 28.5801 50.8485 29.1959 51.9272L28.7449 50.546Z" fill="#A80030"/>
<path d="M69.0362 41.4475L68.8209 42.0084C68.4262 44.9215 67.574 47.8041 66.2675 50.4765C67.711 47.6566 68.6448 44.5724 69.0362 41.4475Z" fill="#A80030"/>
<path d="M37.1964 0.455011C38.1873 0.0779534 39.6325 0.248265 40.6837 0C39.3136 0.119472 37.95 0.190647 36.6035 0.371126L37.1964 0.455011Z" fill="#A80030"/>
<path d="M2.40926 19.6739C2.63762 21.8702 0.818945 22.7226 2.81214 21.2745C3.88051 18.7741 2.39458 20.5839 2.40926 19.6739Z" fill="#A80030"/>
<path d="M0.0669639 29.8384C0.526117 28.3742 0.609303 27.4947 0.784646 26.6474C-0.484347 28.3327 0.200714 28.692 0.0669639 29.8384Z" fill="#A80030"/>
<path d="M14.4547 50.149C18.7269 52.3355 26.9165 59.4513 25.4968 70.4233C27.9287 78.1089 37.7614 92.9635 57.6373 90.8963C77.5131 88.8291 86.9515 73.471 89.1862 66.0504C90.435 60.4187 91.6707 46.611 86.6228 36.4341C90.1064 40.9395 96.2847 53.1703 93.1298 66.0504C91.7958 71.4966 91.3549 73.4625 91.3897 73.5468C91.4486 73.3905 91.5062 73.2349 91.5624 73.0803C91.8753 72.0671 92.5532 69.5925 93.1298 67.4418C92.8356 69.0616 92.3236 70.9861 91.5624 73.0803C91.4636 73.4002 91.4011 73.5744 91.3897 73.5468C87.6107 83.5773 78.1935 97.188 59.8063 100.04C31.6094 104.412 14.4547 79.9641 14.4547 70.4233C13.9946 67.3093 13.3505 58.8948 14.4547 50.149Z" fill="#A80030" stroke="black" stroke-width="0.5"/>
<path d="M26.9612 70.6822V71.9618L39.7576 91.3696L38.9045 91.5829L42.1036 96.9147L44.0231 95.8484L41.2505 90.5165L40.3974 90.9431L31.2267 77.0803L26.9612 70.6822Z" fill="#A80030" stroke="black" stroke-width="0.5"/>
<path fill-rule="evenodd" clip-rule="evenodd" d="M37.4116 73.4547L37.8382 76.014L38.2647 76.2273H37.1983L36.7718 76.6538L33.786 81.5591L31.2267 77.0803L31.0134 76.2273L30.8002 77.0803H30.5869L26.9612 71.5352V71.9618L30.3736 77.0803L31.44 78.5733L33.5727 83.6918L33.9992 83.9051L34.4258 83.2653L36.132 86.2511L37.8382 87.1042L43.8098 89.8767L45.9425 87.5307L45.0894 83.6918L44.2363 81.5591L41.8903 76.014H39.9709L39.7576 74.0945L40.6107 75.1609L40.824 74.9476L39.7576 73.4547V73.0282L39.9709 72.8149L39.5443 71.9618L37.4116 72.3883L36.9851 71.1087H36.7718L37.1983 72.3883L36.5585 72.6016L36.7718 73.4547H37.4116ZM35.0656 82.8387L37.4116 79.6396L38.0514 84.9714H39.9709L38.2647 86.2511L36.9851 85.8245L35.0656 82.8387Z" fill="#A80030"/>
<path d="M37.8382 76.014L37.5916 76.0551L37.6125 76.1807L37.7264 76.2376L37.8382 76.014ZM37.4116 73.4547L37.6582 73.4136L37.6234 73.2047H37.4116V73.4547ZM38.2647 76.2273V76.4773L38.3765 76.0036L38.2647 76.2273ZM37.1983 76.2273V75.9773H37.0948L37.0216 76.0505L37.1983 76.2273ZM36.7718 76.6538L36.595 76.477L36.5738 76.4982L36.5582 76.5238L36.7718 76.6538ZM33.786 81.5591L33.5689 81.6831L33.7792 82.0511L33.9995 81.6891L33.786 81.5591ZM31.2267 77.0803L30.9842 77.141L30.9925 77.1744L31.0096 77.2044L31.2267 77.0803ZM31.0134 76.2273L31.256 76.1666H30.7709L31.0134 76.2273ZM30.8002 77.0803V77.3303H30.9953L31.0427 77.141L30.8002 77.0803ZM30.5869 77.0803L30.3776 77.2172L30.4516 77.3303H30.5869V77.0803ZM26.9612 71.5352L27.1705 71.3984L26.7112 70.6961V71.5352H26.9612ZM26.9612 71.9618H26.7112V72.0375L26.7532 72.1005L26.9612 71.9618ZM30.3736 77.0803L30.1655 77.2191L30.1702 77.2257L30.3736 77.0803ZM31.44 78.5733L31.6707 78.4771L31.6599 78.451L31.6434 78.4279L31.44 78.5733ZM33.5727 83.6918L33.3419 83.788L33.3777 83.8738L33.4609 83.9154L33.5727 83.6918ZM33.9992 83.9051L33.8874 84.1287L34.0848 84.2274L34.2073 84.0437L33.9992 83.9051ZM34.4258 83.2653L34.6429 83.1412L34.4422 82.79L34.2178 83.1266L34.4258 83.2653ZM36.132 86.2511L35.9149 86.3751L35.9525 86.4408L36.0202 86.4747L36.132 86.2511ZM37.8382 87.1042L37.7263 87.3279L37.7329 87.3309L37.8382 87.1042ZM43.8098 89.8767L43.7045 90.1035L43.8712 90.1808L43.9948 90.0449L43.8098 89.8767ZM45.9425 87.5307L46.1275 87.6989L46.2147 87.603L46.1866 87.4765L45.9425 87.5307ZM45.0894 83.6918L45.3335 83.6376L45.3291 83.6178L45.3216 83.599L45.0894 83.6918ZM44.2363 81.5591L44.4685 81.4662L44.4666 81.4617L44.2363 81.5591ZM41.8903 76.014L42.1206 75.9166L42.056 75.764H41.8903V76.014ZM39.9709 76.014L39.7224 76.0416L39.7471 76.264H39.9709V76.014ZM39.7576 74.0945L39.9528 73.9383L39.4139 73.2646L39.5091 74.1221L39.7576 74.0945ZM40.6107 75.1609L40.4155 75.3171L40.59 75.5352L40.7875 75.3377L40.6107 75.1609ZM40.824 74.9476L41.0008 75.1244L41.1505 74.9746L41.0274 74.8023L40.824 74.9476ZM39.7576 73.4547H39.5076V73.5348L39.5542 73.6L39.7576 73.4547ZM39.7576 73.0282L39.5808 72.8514L39.5076 72.9246V73.0282H39.7576ZM39.9709 72.8149L40.1477 72.9917L40.2751 72.8642L40.1945 72.7031L39.9709 72.8149ZM39.5443 71.9618L39.7679 71.85L39.6826 71.6792L39.4953 71.7166L39.5443 71.9618ZM37.4116 72.3883L37.1744 72.4674L37.2442 72.6768L37.4606 72.6335L37.4116 72.3883ZM36.9851 71.1087L37.2222 71.0296L37.1653 70.8587H36.9851V71.1087ZM36.7718 71.1087V70.8587H36.4249L36.5346 71.1878L36.7718 71.1087ZM37.1983 72.3883L37.2774 72.6255L37.5146 72.5465L37.4355 72.3093L37.1983 72.3883ZM36.5585 72.6016L36.4795 72.3644L36.2598 72.4377L36.316 72.6622L36.5585 72.6016ZM36.7718 73.4547L36.5293 73.5153L36.5766 73.7047H36.7718V73.4547ZM37.4116 79.6396L37.6598 79.6098L37.5844 78.9812L37.21 79.4918L37.4116 79.6396ZM35.0656 82.8387L34.864 82.6909L34.7624 82.8294L34.8553 82.9739L35.0656 82.8387ZM38.0514 84.9714L37.8032 85.0012L37.8296 85.2214H38.0514V84.9714ZM39.9709 84.9714L40.1209 85.1714L40.7209 84.7214H39.9709V84.9714ZM38.2647 86.2511L38.1856 86.4882L38.3099 86.5297L38.4147 86.4511L38.2647 86.2511ZM36.9851 85.8245L36.7748 85.9597L36.8224 86.0338L36.906 86.0617L36.9851 85.8245ZM34.8523 82.8387L34.6615 82.6772L34.5445 82.8155L34.6394 82.9697L34.8523 82.8387ZM36.5585 85.6113L36.3456 85.7423L36.3872 85.8098L36.46 85.841L36.5585 85.6113ZM38.0514 86.2511L37.953 86.4809L38.0823 86.5363L38.1967 86.4545L38.0514 86.2511ZM38.0848 75.9729L37.6582 73.4136L37.165 73.4958L37.5916 76.0551L38.0848 75.9729ZM38.3765 76.0036L37.95 75.7904L37.7264 76.2376L38.1529 76.4509L38.3765 76.0036ZM37.1983 76.4773H38.2647V75.9773H37.1983V76.4773ZM36.9486 76.8306L37.3751 76.404L37.0216 76.0505L36.595 76.477L36.9486 76.8306ZM33.9995 81.6891L36.9853 76.7838L36.5582 76.5238L33.5724 81.4291L33.9995 81.6891ZM31.0096 77.2044L33.5689 81.6831L34.003 81.435L31.4438 76.9563L31.0096 77.2044ZM30.7709 76.2879L30.9842 77.141L31.4692 77.0197L31.256 76.1666L30.7709 76.2879ZM31.0427 77.141L31.256 76.2879L30.7709 76.1666L30.5576 77.0197L31.0427 77.141ZM30.5869 77.3303H30.8002V76.8303H30.5869V77.3303ZM26.752 71.6721L30.3776 77.2172L30.7961 76.9435L27.1705 71.3984L26.752 71.6721ZM27.2112 71.9618V71.5352H26.7112V71.9618H27.2112ZM30.5816 76.9417L27.1693 71.8231L26.7532 72.1005L30.1656 77.219L30.5816 76.9417ZM31.6434 78.4279L30.577 76.935L30.1702 77.2257L31.2365 78.7186L31.6434 78.4279ZM33.8035 83.5956L31.6707 78.4771L31.2092 78.6694L33.3419 83.788L33.8035 83.5956ZM34.111 83.6815L33.6845 83.4682L33.4609 83.9154L33.8874 84.1287L34.111 83.6815ZM34.2178 83.1266L33.7912 83.7664L34.2073 84.0437L34.6338 83.4039L34.2178 83.1266ZM36.349 86.127L34.6429 83.1412L34.2087 83.3893L35.9149 86.3751L36.349 86.127ZM37.95 86.8806L36.2438 86.0275L36.0202 86.4747L37.7264 87.3278L37.95 86.8806ZM43.9151 89.65L37.9434 86.8774L37.7329 87.3309L43.7045 90.1035L43.9151 89.65ZM45.7575 87.3625L43.6248 89.7085L43.9948 90.0449L46.1275 87.6989L45.7575 87.3625ZM44.8454 83.746L45.6985 87.5849L46.1866 87.4765L45.3335 83.6376L44.8454 83.746ZM44.0042 81.6519L44.8573 83.7846L45.3216 83.599L44.4685 81.4662L44.0042 81.6519ZM41.6601 76.1114L44.0061 81.6565L44.4666 81.4617L42.1206 75.9166L41.6601 76.1114ZM39.9709 76.264H41.8903V75.764H39.9709V76.264ZM39.5091 74.1221L39.7224 76.0416L40.2194 75.9864L40.0061 74.0669L39.5091 74.1221ZM40.8059 75.0047L39.9528 73.9383L39.5624 74.2507L40.4155 75.3171L40.8059 75.0047ZM40.6472 74.7708L40.4339 74.9841L40.7875 75.3377L41.0008 75.1244L40.6472 74.7708ZM39.5542 73.6L40.6205 75.0929L41.0274 74.8023L39.961 73.3094L39.5542 73.6ZM39.5076 73.0282V73.4547H40.0076V73.0282H39.5076ZM39.7941 72.6381L39.5808 72.8514L39.9344 73.2049L40.1477 72.9917L39.7941 72.6381ZM39.3207 72.0736L39.7473 72.9267L40.1945 72.7031L39.7679 71.85L39.3207 72.0736ZM37.4606 72.6335L39.5934 72.2069L39.4953 71.7166L37.3626 72.1432L37.4606 72.6335ZM36.7479 71.1878L37.1744 72.4674L37.6488 72.3093L37.2222 71.0296L36.7479 71.1878ZM36.7718 71.3587H36.9851V70.8587H36.7718V71.3587ZM37.4355 72.3093L37.009 71.0296L36.5346 71.1878L36.9612 72.4674L37.4355 72.3093ZM36.6376 72.8388L37.2774 72.6255L37.1193 72.1512L36.4795 72.3644L36.6376 72.8388ZM37.0143 73.3941L36.8011 72.541L36.316 72.6622L36.5293 73.5153L37.0143 73.3941ZM37.4116 73.2047H36.7718V73.7047H37.4116V73.2047ZM37.21 79.4918L34.864 82.6909L35.2672 82.9865L37.6132 79.7875L37.21 79.4918ZM38.2996 84.9416L37.6598 79.6098L37.1634 79.6694L37.8032 85.0012L38.2996 84.9416ZM39.9709 84.7214H38.0514V85.2214H39.9709V84.7214ZM38.4147 86.4511L40.1209 85.1714L39.8209 84.7714L38.1147 86.0511L38.4147 86.4511ZM36.906 86.0617L38.1856 86.4882L38.3438 86.0139L37.0641 85.5874L36.906 86.0617ZM34.8553 82.9739L36.7748 85.9597L37.1954 85.6893L35.2759 82.7035L34.8553 82.9739ZM44.983 83.4656L37.7317 86.878L37.9446 87.3304L45.1959 83.918L44.983 83.4656ZM36.261 80.7869L34.6615 82.6772L35.0432 83.0002L36.6427 81.1099L36.261 80.7869ZM34.6394 82.9697L36.3456 85.7423L36.7714 85.4802L35.0653 82.7077L34.6394 82.9697ZM36.46 85.841L36.8595 86.0123L37.0565 85.5527L36.657 85.3815L36.46 85.841ZM37.2065 86.161L37.953 86.4809L38.1499 86.0213L37.4035 85.7014L37.2065 86.161ZM38.1967 86.4545L38.2646 86.406L37.974 85.9992L37.9061 86.0476L38.1967 86.4545Z" fill="black"/>
<path d="M40.0775 74.3256V75.6052L52.8739 95.0131L52.0208 95.2263L55.2199 100.558L57.1393 99.4918L54.3668 94.16L53.5137 94.5865L44.343 80.7238L40.0775 74.3256Z" fill="#A80030" stroke="black" stroke-width="0.5"/>
<path fill-rule="evenodd" clip-rule="evenodd" d="M50.5279 77.0981L50.9544 79.6574L51.381 79.8707H50.3146L49.8881 80.2972L46.9022 85.2025L44.343 80.7238L44.1297 79.8707L43.9164 80.7238H43.7032L40.0775 75.1787V75.6052L43.4899 80.7238L44.5562 82.2167L46.689 87.3352L47.1155 87.5485L47.5421 86.9087L49.2482 89.8945L50.9544 90.7476L56.9261 93.5201L59.0588 91.1741L58.2057 87.3352L57.3526 85.2025L55.0066 79.6574H53.0872L52.8739 77.738L53.727 78.8043L53.9402 78.591L52.8739 77.0981V76.6716L53.0872 76.4583L52.6606 75.6052L50.5279 76.0318L50.1013 74.7521H49.8881L50.3146 76.0318L49.6748 76.245L49.8881 77.0981H50.5279ZM48.1819 86.4821L50.5279 83.283L51.1677 88.6148H53.0872L51.381 89.8945L50.1013 89.4679L48.1819 86.4821Z" fill="#A80030"/>
<path d="M50.9544 79.6574L50.7078 79.6985L50.7288 79.8241L50.8426 79.881L50.9544 79.6574ZM50.5279 77.0981L50.7745 77.057L50.7397 76.8481H50.5279V77.0981ZM51.381 79.8707V80.1207L51.4928 79.6471L51.381 79.8707ZM50.3146 79.8707V79.6207H50.2111L50.1378 79.6939L50.3146 79.8707ZM49.8881 80.2972L49.7113 80.1205L49.6901 80.1416L49.6745 80.1672L49.8881 80.2972ZM46.9022 85.2025L46.6852 85.3265L46.8954 85.6945L47.1158 85.3325L46.9022 85.2025ZM44.343 80.7238L44.1004 80.7844L44.1088 80.8179L44.1259 80.8478L44.343 80.7238ZM44.1297 79.8707L44.3722 79.8101H43.8872L44.1297 79.8707ZM43.9164 80.7238V80.9738H44.1116L44.159 80.7844L43.9164 80.7238ZM43.7032 80.7238L43.4939 80.8606L43.5679 80.9738H43.7032V80.7238ZM40.0775 75.1787L40.2868 75.0419L39.8275 74.3395V75.1787H40.0775ZM40.0775 75.6052H39.8275V75.6809L39.8695 75.7439L40.0775 75.6052ZM43.4899 80.7238L43.2818 80.8625L43.2864 80.8691L43.4899 80.7238ZM44.5562 82.2167L44.787 82.1205L44.7761 82.0944L44.7597 82.0714L44.5562 82.2167ZM46.689 87.3352L46.4582 87.4314L46.494 87.5172L46.5772 87.5588L46.689 87.3352ZM47.1155 87.5485L47.0037 87.7721L47.2011 87.8708L47.3235 87.6872L47.1155 87.5485ZM47.5421 86.9087L47.7591 86.7847L47.5584 86.4334L47.3341 86.77L47.5421 86.9087ZM49.2482 89.8945L49.0312 90.0185L49.0687 90.0843L49.1364 90.1181L49.2482 89.8945ZM50.9544 90.7476L50.8426 90.9713L50.8492 90.9743L50.9544 90.7476ZM56.9261 93.5201L56.8208 93.7469L56.9874 93.8243L57.1111 93.6883L56.9261 93.5201ZM59.0588 91.1741L59.2438 91.3423L59.331 91.2464L59.3028 91.1199L59.0588 91.1741ZM58.2057 87.3352L58.4498 87.281L58.4454 87.2612L58.4378 87.2424L58.2057 87.3352ZM57.3526 85.2025L57.5848 85.1096L57.5829 85.1051L57.3526 85.2025ZM55.0066 79.6574L55.2369 79.56L55.1723 79.4074H55.0066V79.6574ZM53.0872 79.6574L52.8387 79.685L52.8634 79.9074H53.0872V79.6574ZM52.8739 77.738L53.0691 77.5818L52.5301 76.9081L52.6254 77.7656L52.8739 77.738ZM53.727 78.8043L53.5318 78.9605L53.7062 79.1786L53.9038 78.9811L53.727 78.8043ZM53.9402 78.591L54.117 78.7678L54.2668 78.6181L54.1437 78.4457L53.9402 78.591ZM52.8739 77.0981H52.6239V77.1783L52.6705 77.2434L52.8739 77.0981ZM52.8739 76.6716L52.6971 76.4948L52.6239 76.568V76.6716H52.8739ZM53.0872 76.4583L53.2639 76.6351L53.3913 76.5077L53.3108 76.3465L53.0872 76.4583ZM52.6606 75.6052L52.8842 75.4934L52.7988 75.3226L52.6116 75.3601L52.6606 75.6052ZM50.5279 76.0318L50.2907 76.1108L50.3605 76.3202L50.5769 76.2769L50.5279 76.0318ZM50.1013 74.7521L50.3385 74.6731L50.2815 74.5021H50.1013V74.7521ZM49.8881 74.7521V74.5021H49.5412L49.6509 74.8312L49.8881 74.7521ZM50.3146 76.0318L50.3937 76.2689L50.6308 76.1899L50.5518 75.9527L50.3146 76.0318ZM49.6748 76.245L49.5957 76.0079L49.3761 76.0811L49.4323 76.3057L49.6748 76.245ZM49.8881 77.0981L49.6455 77.1588L49.6929 77.3481H49.8881V77.0981ZM50.5279 83.283L50.7761 83.2532L50.7007 82.6247L50.3263 83.1352L50.5279 83.283ZM48.1819 86.4821L47.9803 86.3343L47.8787 86.4728L47.9716 86.6173L48.1819 86.4821ZM51.1677 88.6148L50.9195 88.6446L50.9459 88.8648H51.1677V88.6148ZM53.0872 88.6148L53.2372 88.8148L53.8372 88.3648H53.0872V88.6148ZM51.381 89.8945L51.3019 90.1317L51.4262 90.1731L51.531 90.0945L51.381 89.8945ZM50.1013 89.4679L49.891 89.6031L49.9387 89.6772L50.0223 89.7051L50.1013 89.4679ZM47.9686 86.4821L47.7778 86.3207L47.6608 86.4589L47.7557 86.6132L47.9686 86.4821ZM49.6748 89.2547L49.4619 89.3857L49.5034 89.4532L49.5763 89.4845L49.6748 89.2547ZM51.1677 89.8945L51.0692 90.1243L51.1985 90.1797L51.313 90.0979L51.1677 89.8945ZM51.201 79.6163L50.7745 77.057L50.2813 77.1392L50.7078 79.6985L51.201 79.6163ZM51.4928 79.6471L51.0662 79.4338L50.8426 79.881L51.2692 80.0943L51.4928 79.6471ZM50.3146 80.1207H51.381V79.6207H50.3146V80.1207ZM50.0648 80.474L50.4914 80.0475L50.1378 79.6939L49.7113 80.1205L50.0648 80.474ZM47.1158 85.3325L50.1016 80.4272L49.6745 80.1672L46.6887 85.0725L47.1158 85.3325ZM44.1259 80.8478L46.6852 85.3265L47.1193 85.0785L44.56 80.5997L44.1259 80.8478ZM43.8872 79.9313L44.1004 80.7844L44.5855 80.6631L44.3722 79.8101L43.8872 79.9313ZM44.159 80.7844L44.3722 79.9313L43.8872 79.8101L43.6739 80.6631L44.159 80.7844ZM43.7032 80.9738H43.9164V80.4738H43.7032V80.9738ZM39.8683 75.3155L43.4939 80.8606L43.9124 80.587L40.2868 75.0419L39.8683 75.3155ZM40.3275 75.6052V75.1787H39.8275V75.6052H40.3275ZM43.6979 80.5851L40.2855 75.4666L39.8695 75.7439L43.2819 80.8625L43.6979 80.5851ZM44.7597 82.0714L43.6933 80.5785L43.2864 80.8691L44.3528 82.362L44.7597 82.0714ZM46.9197 87.2391L44.787 82.1205L44.3255 82.3128L46.4582 87.4314L46.9197 87.2391ZM47.2273 87.3249L46.8008 87.1116L46.5772 87.5588L47.0037 87.7721L47.2273 87.3249ZM47.3341 86.77L46.9075 87.4098L47.3235 87.6872L47.7501 87.0474L47.3341 86.77ZM49.4653 89.7705L47.7591 86.7847L47.325 87.0327L49.0312 90.0185L49.4653 89.7705ZM51.0662 90.524L49.36 89.6709L49.1364 90.1181L50.8426 90.9712L51.0662 90.524ZM57.0313 93.2934L51.0597 90.5208L50.8492 90.9743L56.8208 93.7469L57.0313 93.2934ZM58.8738 91.006L56.7411 93.352L57.1111 93.6883L59.2438 91.3423L58.8738 91.006ZM57.9617 87.3895L58.8147 91.2284L59.3028 91.1199L58.4498 87.281L57.9617 87.3895ZM57.1205 85.2954L57.9736 87.4281L58.4378 87.2424L57.5847 85.1097L57.1205 85.2954ZM54.7764 79.7548L57.1224 85.2999L57.5829 85.1051L55.2369 79.56L54.7764 79.7548ZM53.0872 79.9074H55.0066V79.4074H53.0872V79.9074ZM52.6254 77.7656L52.8387 79.685L53.3356 79.6298L53.1224 77.7103L52.6254 77.7656ZM53.9222 78.6481L53.0691 77.5818L52.6787 77.8941L53.5318 78.9605L53.9222 78.6481ZM53.7635 78.4143L53.5502 78.6275L53.9038 78.9811L54.117 78.7678L53.7635 78.4143ZM52.6705 77.2434L53.7368 78.7364L54.1437 78.4457L53.0773 76.9528L52.6705 77.2434ZM52.6239 76.6716V77.0981H53.1239V76.6716H52.6239ZM52.9104 76.2815L52.6971 76.4948L53.0507 76.8484L53.2639 76.6351L52.9104 76.2815ZM52.437 75.717L52.8636 76.5701L53.3108 76.3465L52.8842 75.4934L52.437 75.717ZM50.5769 76.2769L52.7096 75.8504L52.6116 75.3601L50.4789 75.7866L50.5769 76.2769ZM49.8642 74.8312L50.2907 76.1108L50.7651 75.9527L50.3385 74.6731L49.8642 74.8312ZM49.8881 75.0021H50.1013V74.5021H49.8881V75.0021ZM50.5518 75.9527L50.1252 74.6731L49.6509 74.8312L50.0774 76.1108L50.5518 75.9527ZM49.7538 76.4822L50.3937 76.2689L50.2356 75.7946L49.5957 76.0079L49.7538 76.4822ZM50.1306 77.0375L49.9173 76.1844L49.4323 76.3057L49.6455 77.1588L50.1306 77.0375ZM50.5279 76.8481H49.8881V77.3481H50.5279V76.8481ZM50.3263 83.1352L47.9803 86.3343L48.3835 86.63L50.7295 83.4309L50.3263 83.1352ZM51.4159 88.5851L50.7761 83.2532L50.2797 83.3128L50.9195 88.6446L51.4159 88.5851ZM53.0872 88.3648H51.1677V88.8648H53.0872V88.3648ZM51.531 90.0945L53.2372 88.8148L52.9372 88.4148L51.231 89.6945L51.531 90.0945ZM50.0223 89.7051L51.3019 90.1317L51.46 89.6573L50.1804 89.2308L50.0223 89.7051ZM47.9716 86.6173L49.891 89.6031L50.3116 89.3327L48.3922 86.3469L47.9716 86.6173ZM58.0993 87.109L50.848 90.5214L51.0609 90.9738L58.3122 87.5614L58.0993 87.109ZM49.3772 84.4304L47.7778 86.3207L48.1595 86.6436L49.7589 84.7534L49.3772 84.4304ZM47.7557 86.6132L49.4619 89.3857L49.8877 89.1237L48.1815 86.3511L47.7557 86.6132ZM49.5763 89.4845L49.9758 89.6557L50.1728 89.1961L49.7733 89.0249L49.5763 89.4845ZM50.3225 89.8043L51.0692 90.1243L51.2662 89.6647L50.5195 89.3447L50.3225 89.8043ZM51.313 90.0979L51.3809 90.0495L51.0903 89.6426L51.0224 89.6911L51.313 90.0979Z" fill="black"/>
<path d="M52.4651 72.1395V73.4192L65.2615 92.827L64.4084 93.0403L67.6075 98.3721L69.5269 97.3057L66.7544 91.9739L65.9013 92.4004L56.7305 78.5377L52.4651 72.1395Z" fill="#A80030" stroke="black" stroke-width="0.5"/>
<path fill-rule="evenodd" clip-rule="evenodd" d="M62.9155 74.9121L63.342 77.4713L63.7685 77.6846H62.7022L62.2756 78.1112L59.2898 83.0164L56.7305 78.5377L56.5173 77.6846L56.304 78.5377H56.0907L52.4651 72.9926V73.4192L55.8775 78.5377L56.9438 80.0306L59.0765 85.1492L59.5031 85.3624L59.9296 84.7226L61.6358 87.7084L63.342 88.5615L69.3136 91.3341L71.4464 88.9881L70.5933 85.1492L69.7402 83.0164L67.3942 77.4713H65.4747L65.2615 75.5519L66.1145 76.6183L66.3278 76.405L65.2615 74.9121V74.4855L65.4747 74.2723L65.0482 73.4192L62.9155 73.8457L62.4889 72.5661H62.2756L62.7022 73.8457L62.0624 74.059L62.2756 74.9121H62.9155ZM60.5695 84.2961L62.9155 81.097L63.5553 86.4288H65.4748L63.7686 87.7084L62.4889 87.2819L60.5695 84.2961Z" fill="#A80030"/>
<path d="M63.342 77.4713L63.0954 77.5124L63.1163 77.638L63.2302 77.695L63.342 77.4713ZM62.9155 74.9121L63.1621 74.871L63.1272 74.6621H62.9155V74.9121ZM63.7685 77.6846V77.9346L63.8804 77.461L63.7685 77.6846ZM62.7022 77.6846V77.4346H62.5986L62.5254 77.5078L62.7022 77.6846ZM62.2756 78.1112L62.0989 77.9344L62.0777 77.9556L62.0621 77.9812L62.2756 78.1112ZM59.2898 83.0164L59.0728 83.1405L59.283 83.5084L59.5034 83.1464L59.2898 83.0164ZM56.7305 78.5377L56.488 78.5983L56.4964 78.6318L56.5135 78.6617L56.7305 78.5377ZM56.5173 77.6846L56.7598 77.624H56.2747L56.5173 77.6846ZM56.304 78.5377V78.7877H56.4992L56.5465 78.5983L56.304 78.5377ZM56.0907 78.5377L55.8815 78.6745L55.9555 78.7877H56.0907V78.5377ZM52.4651 72.9926L52.6743 72.8558L52.2151 72.1534V72.9926H52.4651ZM52.4651 73.4192H52.2151V73.4949L52.2571 73.5578L52.4651 73.4192ZM55.8775 78.5377L55.6693 78.6765L55.674 78.683L55.8775 78.5377ZM56.9438 80.0306L57.1746 79.9345L57.1637 79.9083L57.1473 79.8853L56.9438 80.0306ZM59.0765 85.1492L58.8458 85.2453L58.8815 85.3312L58.9647 85.3728L59.0765 85.1492ZM59.5031 85.3624L59.3913 85.586L59.5887 85.6847L59.7111 85.5011L59.5031 85.3624ZM59.9296 84.7226L60.1467 84.5986L59.946 84.2474L59.7216 84.5839L59.9296 84.7226ZM61.6358 87.7084L61.4188 87.8325L61.4563 87.8982L61.524 87.932L61.6358 87.7084ZM63.342 88.5615L63.2302 88.7852L63.2367 88.7883L63.342 88.5615ZM69.3136 91.3341L69.2084 91.5608L69.375 91.6382L69.4986 91.5022L69.3136 91.3341ZM71.4464 88.9881L71.6314 89.1562L71.7185 89.0604L71.6904 88.9338L71.4464 88.9881ZM70.5933 85.1492L70.8373 85.0949L70.8329 85.0751L70.8254 85.0563L70.5933 85.1492ZM69.7402 83.0164L69.9724 82.9236L69.9704 82.919L69.7402 83.0164ZM67.3942 77.4713L67.6244 77.3739L67.5599 77.2213H67.3942V77.4713ZM65.4747 77.4713L65.2263 77.499L65.251 77.7213H65.4747V77.4713ZM65.2615 75.5519L65.4567 75.3957L64.9177 74.722L65.013 75.5795L65.2615 75.5519ZM66.1145 76.6183L65.9193 76.7744L66.0938 76.9925L66.2913 76.795L66.1145 76.6183ZM66.3278 76.405L66.5046 76.5818L66.6544 76.432L66.5313 76.2597L66.3278 76.405ZM65.2615 74.9121H65.0115V74.9922L65.058 75.0574L65.2615 74.9121ZM65.2615 74.4855L65.0847 74.3087L65.0115 74.382V74.4855H65.2615ZM65.4747 74.2723L65.6515 74.449L65.7789 74.3216L65.6983 74.1604L65.4747 74.2723ZM65.0482 73.4192L65.2718 73.3074L65.1864 73.1366L64.9992 73.174L65.0482 73.4192ZM62.9155 73.8457L62.6783 73.9248L62.7481 74.1341L62.9645 74.0909L62.9155 73.8457ZM62.4889 72.5661L62.7261 72.487L62.6691 72.3161H62.4889V72.5661ZM62.2756 72.5661V72.3161H61.9288L62.0385 72.6451L62.2756 72.5661ZM62.7022 73.8457L62.7812 74.0829L63.0184 74.0038L62.9394 73.7667L62.7022 73.8457ZM62.0624 74.059L61.9833 73.8218L61.7637 73.895L61.8198 74.1196L62.0624 74.059ZM62.2756 74.9121L62.0331 74.9727L62.0804 75.1621H62.2756V74.9121ZM62.9155 81.097L63.1637 81.0672L63.0883 80.4386L62.7139 80.9491L62.9155 81.097ZM60.5695 84.2961L60.3679 84.1482L60.2663 84.2868L60.3592 84.4313L60.5695 84.2961ZM63.5553 86.4288L63.3071 86.4586L63.3335 86.6788H63.5553V86.4288ZM65.4748 86.4288L65.6248 86.6288L66.2248 86.1788H65.4748V86.4288ZM63.7686 87.7084L63.6895 87.9456L63.8138 87.987L63.9186 87.9084L63.7686 87.7084ZM62.4889 87.2819L62.2786 87.4171L62.3263 87.4912L62.4099 87.5191L62.4889 87.2819ZM60.3562 84.2961L60.1653 84.1346L60.0483 84.2729L60.1433 84.4271L60.3562 84.2961ZM62.0624 87.0686L61.8495 87.1996L61.891 87.2672L61.9639 87.2984L62.0624 87.0686ZM63.5553 87.7084L63.4568 87.9382L63.5861 87.9936L63.7006 87.9119L63.5553 87.7084ZM63.5886 77.4302L63.1621 74.871L62.6689 74.9532L63.0954 77.5124L63.5886 77.4302ZM63.8804 77.461L63.4538 77.2477L63.2302 77.695L63.6567 77.9082L63.8804 77.461ZM62.7022 77.9346H63.7685V77.4346H62.7022V77.9346ZM62.4524 78.2879L62.879 77.8614L62.5254 77.5078L62.0989 77.9344L62.4524 78.2879ZM59.5034 83.1464L62.4892 78.2412L62.0621 77.9812L59.0763 82.8865L59.5034 83.1464ZM56.5135 78.6617L59.0728 83.1405L59.5069 82.8924L56.9476 78.4137L56.5135 78.6617ZM56.2747 77.7453L56.488 78.5983L56.9731 78.4771L56.7598 77.624L56.2747 77.7453ZM56.5465 78.5983L56.7598 77.7453L56.2747 77.624L56.0615 78.4771L56.5465 78.5983ZM56.0907 78.7877H56.304V78.2877H56.0907V78.7877ZM52.2558 73.1294L55.8815 78.6745L56.3 78.4009L52.6743 72.8558L52.2558 73.1294ZM52.7151 73.4192V72.9926H52.2151V73.4192H52.7151ZM56.0855 78.399L52.6731 73.2805L52.2571 73.5578L55.6694 78.6764L56.0855 78.399ZM57.1473 79.8853L56.0809 78.3924L55.674 78.683L56.7404 80.1759L57.1473 79.8853ZM59.3073 85.053L57.1746 79.9345L56.713 80.1268L58.8458 85.2453L59.3073 85.053ZM59.6149 85.1388L59.1883 84.9256L58.9647 85.3728L59.3913 85.586L59.6149 85.1388ZM59.7216 84.5839L59.2951 85.2238L59.7111 85.5011L60.1376 84.8613L59.7216 84.5839ZM61.8529 87.5844L60.1467 84.5986L59.7126 84.8467L61.4188 87.8325L61.8529 87.5844ZM63.4538 88.3379L61.7476 87.4848L61.524 87.932L63.2302 88.7851L63.4538 88.3379ZM69.4189 91.1073L63.4473 88.3348L63.2367 88.7883L69.2084 91.5608L69.4189 91.1073ZM71.2614 88.8199L69.1287 91.1659L69.4986 91.5022L71.6314 89.1562L71.2614 88.8199ZM70.3492 85.2034L71.2023 89.0423L71.6904 88.9338L70.8373 85.0949L70.3492 85.2034ZM69.5081 83.1093L70.3612 85.242L70.8254 85.0563L69.9723 82.9236L69.5081 83.1093ZM67.1639 77.5688L69.5099 83.1138L69.9704 82.919L67.6244 77.3739L67.1639 77.5688ZM65.4747 77.7213H67.3942V77.2213H65.4747V77.7213ZM65.013 75.5795L65.2263 77.499L65.7232 77.4437L65.5099 75.5243L65.013 75.5795ZM66.3098 76.4621L65.4567 75.3957L65.0662 75.7081L65.9193 76.7744L66.3098 76.4621ZM66.151 76.2282L65.9378 76.4415L66.2913 76.795L66.5046 76.5818L66.151 76.2282ZM65.058 75.0574L66.1244 76.5503L66.5313 76.2597L65.4649 74.7668L65.058 75.0574ZM65.0115 74.4855V74.9121H65.5115V74.4855H65.0115ZM65.298 74.0955L65.0847 74.3087L65.4382 74.6623L65.6515 74.449L65.298 74.0955ZM64.8246 73.531L65.2511 74.3841L65.6983 74.1604L65.2718 73.3074L64.8246 73.531ZM62.9645 74.0909L65.0972 73.6643L64.9992 73.174L62.8664 73.6006L62.9645 74.0909ZM62.2517 72.6451L62.6783 73.9248L63.1526 73.7667L62.7261 72.487L62.2517 72.6451ZM62.2756 72.8161H62.4889V72.3161H62.2756V72.8161ZM62.9394 73.7667L62.5128 72.487L62.0385 72.6451L62.465 73.9248L62.9394 73.7667ZM62.1414 74.2962L62.7812 74.0829L62.6231 73.6085L61.9833 73.8218L62.1414 74.2962ZM62.5182 74.8514L62.3049 73.9983L61.8198 74.1196L62.0331 74.9727L62.5182 74.8514ZM62.9155 74.6621H62.2756V75.1621H62.9155V74.6621ZM62.7139 80.9491L60.3679 84.1482L60.7711 84.4439L63.1171 81.2448L62.7139 80.9491ZM63.8035 86.399L63.1637 81.0672L62.6673 81.1268L63.3071 86.4586L63.8035 86.399ZM65.4748 86.1788H63.5553V86.6788H65.4748V86.1788ZM63.9186 87.9084L65.6248 86.6288L65.3248 86.2288L63.6186 87.5084L63.9186 87.9084ZM62.4099 87.5191L63.6895 87.9456L63.8476 87.4713L62.568 87.0447L62.4099 87.5191ZM60.3592 84.4313L62.2786 87.4171L62.6992 87.1467L60.7798 84.1609L60.3592 84.4313ZM70.4868 84.923L63.2356 88.3353L63.4485 88.7877L70.6997 85.3754L70.4868 84.923ZM61.7651 82.244L60.1653 84.1346L60.547 84.4576L62.1468 82.567L61.7651 82.244ZM60.1433 84.4271L61.8495 87.1996L62.2753 86.9376L60.5691 84.1651L60.1433 84.4271ZM61.9639 87.2984L62.3634 87.4696L62.5604 87.0101L62.1608 86.8388L61.9639 87.2984ZM62.7102 87.6183L63.4568 87.9382L63.6538 87.4787L62.9072 87.1587L62.7102 87.6183ZM63.7006 87.9119L63.7685 87.8634L63.4778 87.4565L63.41 87.505L63.7006 87.9119Z" fill="black"/>
<path d="M66.3101 68.4961V69.626L77.6087 86.7623L76.8555 86.9506L79.6801 91.6584L81.3749 90.7168L78.9269 86.0091L78.1737 86.3857L70.0763 74.1455L66.3101 68.4961Z" fill="#A80030" stroke="black" stroke-width="0.5"/>
<path fill-rule="evenodd" clip-rule="evenodd" d="M75.5373 70.9442L75.9139 73.2039L76.2905 73.3922H75.349L74.9724 73.7688L72.336 78.1L70.0763 74.1455L69.888 73.3922L69.6997 74.1455H69.5113L66.3101 69.2494V69.626L69.323 74.1455L70.2646 75.4636L72.1477 79.9831L72.5243 80.1714L72.9009 79.6065L74.4074 82.2428L75.9139 82.9961L81.1866 85.4441L83.0697 83.3727L82.3165 79.9831L81.5633 78.1L79.4918 73.2039H77.797L77.6087 71.5091L78.362 72.4507L78.5503 72.2623L77.6087 70.9442V70.5675L77.797 70.3792L77.4204 69.626L75.5373 70.0026L75.1607 68.8727H74.9724L75.349 70.0026L74.7841 70.1909L74.9724 70.9442H75.5373ZM73.4659 79.2298L75.5373 76.4052L76.1023 81.113H77.7971L76.2906 82.2428L75.1607 81.8662L73.4659 79.2298Z" fill="#A80030"/>
<path d="M75.9139 73.2039L75.6673 73.245L75.6883 73.3706L75.8021 73.4275L75.9139 73.2039ZM75.5373 70.9442L75.7839 70.9031L75.7491 70.6942H75.5373V70.9442ZM76.2905 73.3922V73.6422L76.4024 73.1686L76.2905 73.3922ZM75.349 73.3922V73.1422H75.2454L75.1722 73.2154L75.349 73.3922ZM74.9724 73.7688L74.7956 73.5921L74.7744 73.6132L74.7588 73.6388L74.9724 73.7688ZM72.336 78.1L72.119 78.224L72.3292 78.592L72.5496 78.23L72.336 78.1ZM70.0763 74.1455L69.8337 74.2061L69.8421 74.2395L69.8592 74.2695L70.0763 74.1455ZM69.888 73.3922L70.1305 73.3316H69.6454L69.888 73.3922ZM69.6997 74.1455V74.3955H69.8949L69.9422 74.2061L69.6997 74.1455ZM69.5113 74.1455L69.3021 74.2823L69.3761 74.3955H69.5113V74.1455ZM66.3101 69.2494L66.5193 69.1126L66.0601 68.4102V69.2494H66.3101ZM66.3101 69.626H66.0601V69.7017L66.102 69.7647L66.3101 69.626ZM69.323 74.1455L69.1149 74.2842L69.1196 74.2908L69.323 74.1455ZM70.2646 75.4636L70.4954 75.3675L70.4845 75.3414L70.468 75.3183L70.2646 75.4636ZM72.1477 79.9831L71.9169 80.0793L71.9527 80.1651L72.0359 80.2067L72.1477 79.9831ZM72.5243 80.1714L72.4125 80.395L72.6099 80.4937L72.7323 80.3101L72.5243 80.1714ZM72.9009 79.6065L73.118 79.4824L72.9173 79.1312L72.6929 79.4678L72.9009 79.6065ZM74.4074 82.2428L74.1904 82.3669L74.2279 82.4326L74.2956 82.4664L74.4074 82.2428ZM75.9139 82.9961L75.8021 83.2198L75.8086 83.2228L75.9139 82.9961ZM81.1866 85.4441L81.0814 85.6709L81.248 85.7483L81.3716 85.6123L81.1866 85.4441ZM83.0697 83.3727L83.2547 83.5409L83.3419 83.445L83.3138 83.3185L83.0697 83.3727ZM82.3165 79.9831L82.5606 79.9289L82.5562 79.9091L82.5486 79.8902L82.3165 79.9831ZM81.5633 78.1L81.7954 78.0071L81.7935 78.0026L81.5633 78.1ZM79.4918 73.2039L79.7221 73.1065L79.6575 72.9539H79.4918V73.2039ZM77.797 73.2039L77.5486 73.2315L77.5733 73.4539H77.797V73.2039ZM77.6087 71.5091L77.8039 71.3529L77.265 70.6792L77.3603 71.5367L77.6087 71.5091ZM78.362 72.4507L78.1668 72.6068L78.3412 72.8249L78.5387 72.6274L78.362 72.4507ZM78.5503 72.2623L78.7271 72.4391L78.8768 72.2894L78.7537 72.117L78.5503 72.2623ZM77.6087 70.9442H77.3587V71.0243L77.4053 71.0895L77.6087 70.9442ZM77.6087 70.5675L77.4319 70.3908L77.3587 70.464V70.5675H77.6087ZM77.797 70.3792L77.9738 70.556L78.1012 70.4286L78.0206 70.2674L77.797 70.3792ZM77.4204 69.626L77.644 69.5142L77.5586 69.3434L77.3714 69.3808L77.4204 69.626ZM75.5373 70.0026L75.3001 70.0817L75.3699 70.291L75.5863 70.2478L75.5373 70.0026ZM75.1607 68.8727L75.3979 68.7937L75.3409 68.6227H75.1607V68.8727ZM74.9724 68.8727V68.6227H74.6255L74.7352 68.9518L74.9724 68.8727ZM75.349 70.0026L75.428 70.2398L75.6652 70.1607L75.5862 69.9236L75.349 70.0026ZM74.7841 70.1909L74.705 69.9537L74.4854 70.027L74.5415 70.2516L74.7841 70.1909ZM74.9724 70.9442L74.7298 71.0048L74.7772 71.1942H74.9724V70.9442ZM75.5373 76.4052L75.7856 76.3754L75.7101 75.7468L75.3357 76.2573L75.5373 76.4052ZM73.4659 79.2298L73.2643 79.082L73.1627 79.2205L73.2556 79.365L73.4659 79.2298ZM76.1023 81.113L75.8541 81.1427L75.8805 81.363H76.1023V81.113ZM77.7971 81.113L77.9471 81.313L78.5471 80.863H77.7971V81.113ZM76.2906 82.2428L76.2115 82.48L76.3358 82.5214L76.4406 82.4428L76.2906 82.2428ZM75.1607 81.8662L74.9504 82.0014L74.9981 82.0755L75.0817 82.1034L75.1607 81.8662ZM73.2776 79.2299L73.0867 79.0684L72.9697 79.2066L73.0647 79.3609L73.2776 79.2299ZM74.7841 81.6779L74.5711 81.8089L74.6127 81.8764L74.6856 81.9077L74.7841 81.6779ZM76.1022 82.2428L76.0038 82.4726L76.1331 82.528L76.2475 82.4463L76.1022 82.2428ZM76.1605 73.1628L75.7839 70.9031L75.2907 70.9853L75.6673 73.245L76.1605 73.1628ZM76.4024 73.1686L76.0257 72.9803L75.8021 73.4275L76.1787 73.6158L76.4024 73.1686ZM75.349 73.6422H76.2905V73.1422H75.349V73.6422ZM75.1491 73.9456L75.5258 73.569L75.1722 73.2154L74.7956 73.5921L75.1491 73.9456ZM72.5496 78.23L75.1859 73.8988L74.7588 73.6388L72.1225 77.97L72.5496 78.23ZM69.8592 74.2695L72.119 78.224L72.5531 77.976L70.2933 74.0214L69.8592 74.2695ZM69.6454 73.4528L69.8337 74.2061L70.3188 74.0848L70.1305 73.3316L69.6454 73.4528ZM69.9422 74.2061L70.1305 73.4528L69.6454 73.3316L69.4571 74.0848L69.9422 74.2061ZM69.5113 74.3955H69.6997V73.8955H69.5113V74.3955ZM66.1008 69.3862L69.3021 74.2823L69.7206 74.0086L66.5193 69.1126L66.1008 69.3862ZM66.5601 69.626V69.2494H66.0601V69.626H66.5601ZM69.531 74.0068L66.5181 69.4873L66.102 69.7647L69.115 74.2841L69.531 74.0068ZM70.468 75.3183L69.5265 74.0001L69.1196 74.2908L70.0612 75.6089L70.468 75.3183ZM72.3785 79.8869L70.4954 75.3675L70.0338 75.5598L71.9169 80.0793L72.3785 79.8869ZM72.6361 79.9478L72.2595 79.7595L72.0359 80.2067L72.4125 80.395L72.6361 79.9478ZM72.6929 79.4678L72.3163 80.0327L72.7323 80.3101L73.109 79.7451L72.6929 79.4678ZM74.6245 82.1188L73.118 79.4824L72.6839 79.7305L74.1904 82.3669L74.6245 82.1188ZM76.0257 82.7725L74.5192 82.0192L74.2956 82.4664L75.8021 83.2197L76.0257 82.7725ZM81.2919 85.2174L76.0192 82.7693L75.8086 83.2228L81.0814 85.6709L81.2919 85.2174ZM82.8848 83.2045L81.0017 85.276L81.3716 85.6123L83.2547 83.5409L82.8848 83.2045ZM82.0725 80.0373L82.8257 83.4269L83.3138 83.3185L82.5606 79.9289L82.0725 80.0373ZM81.3311 78.1928L82.0844 80.0759L82.5486 79.8902L81.7954 78.0071L81.3311 78.1928ZM79.2616 73.3013L81.333 78.1974L81.7935 78.0026L79.7221 73.1065L79.2616 73.3013ZM77.797 73.4539H79.4918V72.9539H77.797V73.4539ZM77.3603 71.5367L77.5486 73.2315L78.0455 73.1763L77.8572 71.4815L77.3603 71.5367ZM78.5572 72.2945L77.8039 71.3529L77.4135 71.6653L78.1668 72.6068L78.5572 72.2945ZM78.3735 72.0856L78.1852 72.2739L78.5387 72.6274L78.7271 72.4391L78.3735 72.0856ZM77.4053 71.0895L78.3468 72.4077L78.7537 72.117L77.8122 70.7989L77.4053 71.0895ZM77.3587 70.5675V70.9442H77.8587V70.5675H77.3587ZM77.6203 70.2025L77.4319 70.3908L77.7855 70.7443L77.9738 70.556L77.6203 70.2025ZM77.1968 69.7378L77.5734 70.491L78.0206 70.2674L77.644 69.5142L77.1968 69.7378ZM75.5863 70.2478L77.4694 69.8711L77.3714 69.3808L75.4883 69.7575L75.5863 70.2478ZM74.9235 68.9518L75.3001 70.0817L75.7745 69.9236L75.3979 68.7937L74.9235 68.9518ZM74.9724 69.1227H75.1607V68.6227H74.9724V69.1227ZM75.5862 69.9236L75.2095 68.7937L74.7352 68.9518L75.1118 70.0817L75.5862 69.9236ZM74.8631 70.4281L75.428 70.2398L75.2699 69.7654L74.705 69.9537L74.8631 70.4281ZM75.2149 70.8835L75.0266 70.1303L74.5415 70.2516L74.7298 71.0048L75.2149 70.8835ZM75.5373 70.6942H74.9724V71.1942H75.5373V70.6942ZM75.3357 76.2573L73.2643 79.082L73.6675 79.3777L75.7389 76.553L75.3357 76.2573ZM76.3505 81.0832L75.7856 76.3754L75.2891 76.435L75.8541 81.1427L76.3505 81.0832ZM77.7971 80.863H76.1023V81.363H77.7971V80.863ZM76.4406 82.4428L77.9471 81.313L77.6471 80.913L76.1406 82.0428L76.4406 82.4428ZM75.0817 82.1034L76.2115 82.48L76.3696 82.0057L75.2398 81.629L75.0817 82.1034ZM73.2556 79.365L74.9504 82.0014L75.371 81.731L73.6762 79.0947L73.2556 79.365ZM82.2101 79.7569L75.8075 82.7699L76.0204 83.2223L82.423 80.2093L82.2101 79.7569ZM74.4993 77.399L73.0867 79.0684L73.4684 79.3913L74.881 77.7219L74.4993 77.399ZM73.0647 79.3609L74.5711 81.8089L74.997 81.5469L73.4905 79.0988L73.0647 79.3609ZM74.6856 81.9077L75.0384 82.0589L75.2354 81.5993L74.8825 81.4481L74.6856 81.9077ZM75.3444 82.1901L76.0038 82.4726L76.2007 82.013L75.5414 81.7305L75.3444 82.1901ZM76.2475 82.4463L76.3075 82.4035L76.0169 81.9966L75.9569 82.0394L76.2475 82.4463Z" fill="black"/>
</svg>
