<?xml version="1.0" standalone="no"?>
<!DOCTYPE svg PUBLIC "-//W3C//DTD SVG 20010904//EN"
 "http://www.w3.org/TR/2001/REC-SVG-20010904/DTD/svg10.dtd">
<svg version="1.0" xmlns="http://www.w3.org/2000/svg"
 width="670.000000pt" height="766.000000pt" viewBox="0 0 670.000000 766.000000"
 preserveAspectRatio="xMidYMid meet">

<g transform="translate(0.000000,766.000000) scale(0.100000,-0.100000)"
fill="#EA9FB3" stroke="#EA9FB3">
<path d="M10 3835 l0 -3825 365 0 365 0 0 85 0 85 -265 0 -265 0 0 3649 0
3648 68 6 c37 4 154 7 260 7 l192 0 0 85 0 85 -360 0 -360 0 0 -3825z" stroke="#fdd5df"/>
<path d="M5950 7575 l0 -85 260 0 260 0 0 -3650 0 -3650 -108 0 c-60 0 -177
-3 -260 -7 l-152 -6 0 -84 0 -83 365 0 365 0 0 3825 0 3825 -365 0 -365 0 0
-85z" stroke="#fdd5df"/>
<path d="M2617 5230 c-234 -40 -450 -176 -624 -395 l-32 -40 -1 188 0 187
-355 0 -355 0 0 -1365 0 -1365 375 0 374 0 3 883 3 882 23 69 c68 199 192 318
379 362 130 31 302 4 385 -59 99 -76 144 -179 159 -367 4 -63 9 -487 9 -942
l0 -828 375 0 374 0 3 878 c4 863 4 878 25 954 76 269 241 391 512 375 205
-11 327 -100 381 -275 34 -109 40 -267 40 -1119 l0 -813 376 0 375 0 -4 1003
c-4 1079 -3 1059 -58 1224 -124 378 -439 573 -924 573 -170 0 -288 -24 -410
-83 -141 -69 -289 -189 -399 -327 -15 -19 -30 -30 -32 -24 -23 55 -93 153
-154 214 -108 109 -241 172 -429 205 -89 16 -312 18 -394 5z" stroke="#fdd5df"/>
</g>
</svg>
